# xmcd CD database file
#
# Track frame offsets:
#	150
#	22660
#	40990
#	61459
#	81204
#	99354
#	124371
#	143448
#	158634
#	175980
#	199893
#	227135
#	244660
#	265001
#
# Disc length: 3771 seconds
#
# Revision: 1
# Processed by: cddbd v1.5.2PL0 Copyright (c) Steve Scherf et al.
# Submitted via: CDex 1.79
#
DISCID=b10eb90e
DTITLE=Big Al Downing - One Of A Kind
DYEAR=2002
DGENRE=Country
TTITLE0=Hometown America
TTITLE1=A Cigarette, A Bottle And A Jukebox
TTITLE2=Loves Tragedy
TTITLE3=Jesus It's Only Me Johnny
TTITLE4=Talkin' The Talk
TTITLE5=I'm Too Green To Be Blue
TTITLE6=Joe's Truck Stop
TTITLE7=Boogie-Woogie Roll
TTITLE8=She's A Miracle To Me
TTITLE9=Goodbye My Love
TTITLE10=What A Man Will Do (A Woman Will Too)
TTITLE11=I'm Raisin' Hell
TTITLE12=I Never Got Over You
TTITLE13=Rock Me Baby
EXTD=YEAR: 2002
EXTT0=
EXTT1=
EXTT2=
EXTT3=
EXTT4=
EXTT5=
EXTT6=
EXTT7=
EXTT8=
EXTT9=
EXTT10=
EXTT11=
EXTT12=
EXTT13=
PLAYORDER=
